<?xml version="1.0" encoding="utf-8"?>
<!-- Generator: Adobe Illustrator 19.2.0, SVG Export Plug-In . SVG Version: 6.00 Build 0)  -->
<svg version="1.1" id="Layer_1" xmlns="http://www.w3.org/2000/svg" xmlns:xlink="http://www.w3.org/1999/xlink" x="0px" y="0px"
	 viewBox="0 0 612 792" style="enable-background:new 0 0 612 792;" xml:space="preserve">
<style type="text/css">
	.st0{fill:#FDFDFD;}
	.st1{fill:#262324;}
	.st2{fill:#B4B6B9;}
	.st3{fill:#262325;}
	.st4{fill:#E3E4E5;}
	.st5{fill:#EEEFEF;}
	.st6{fill:#FEFEFE;}
	.st7{fill:#2D90CC;}
	.st8{fill:#94A8BA;}
	.st9{fill:#98ABCA;}
	.st10{fill:#02A0DA;}
	.st11{fill:#BBC3D7;}
</style>
<g>
	<g>
		<path class="st0" d="M183,321c0-15,0.1-30-0.1-45c0-2.5,0.6-3.1,3.1-3.1c80.7,0.1,161.3,0.1,242,0c2.5,0,3.1,0.6,3.1,3.1
			c-0.1,80.7-0.1,161.3,0,242c0,2.5-0.6,3.1-3.1,3.1c-80.7-0.1-161.3-0.1-242,0.1c-3.4,0-3-1.4-3-3.6c0-61.5,0-123,0-184.5
			c2.4,6.1,3.7,12.6,7.7,18.2c5.8,8.1,14.2,13.2,21.5,19.6c2,1.7,3.4,4.4,6.6,4.5l0.1-0.2c-0.5,2.1,0.9,1.7,2.1,1.7
			c0,3.1,2.5,5.2,3.2,8.2c3.5,16.7,9.3,32.5,17.4,47.6c2.5,4.6,7.4,8.4,6.4,14.6c-1.9-2.1-3.5-3-5.6,0c-1.6,2.3-3.9,4.1-5.8,6.2
			c-8.9,9.6-18.7,18.5-26.2,29.4c-6.1,8.9-5.9,13.3,1.6,21c5.1,5.3,10.9,10.4,19.1,7.7c7.3-2.4,14.2-6.6,18.7-12.7
			c6-8,12-15.8,19.4-22.6c1.4-1.2,1.4-2,0-3.5c-2.7-2.9-6.2-5.1-8-8.7c2.9-0.6,4.7,1.2,6.4,3.1c9.3,10.2,20.3,18.4,31.9,26
			c4.7,3.1,9.2,4,14.3,0.7c8.4-5.4,16.8-10.7,23.8-17.8c1.9-1.9,3.8-3.2,6.4-3.3c0.1,0.5,0.1,1,0.2,1.5c-0.6,1.7-3.7,2.3-1.2,5.2
			c9.2,10.5,17.4,21.8,27.8,31.2c9.1,8.2,13.6,9.9,25.7-0.7c4.4-3.9,8.1-8.8,6.5-15.2c-2.1-8.4-5.5-16.8-12.4-22.2
			c-7.7-6.1-13.6-13.5-19.6-21c-1.8-2.3-3.5-3.7-6.5-2.7c2-3.8,3.3-7.8,5.7-11.4c7.8-11.7,12.5-24.7,17.1-37.9
			c4.7-13.6,5.2-28.1,9.8-41.7c11.7-6.7,21.4-15.5,27.9-27.4c6.1-11.1,5.7-22.2-1.5-32.8c-3.8-5.5-8.7-10-14.4-13.7
			c-20.5-13.3-50.1-12.4-64.9,8.2c-2.2,3-1.8,4.2,1,5.6c-3.5,0.8-6.9,0.1-10.2-1.3c-6.8-3-13.8-5.7-20.3-9.3
			c-5.3-2.9-9.6-2.5-14.8,0.1c-14.6,7.3-29.4,14.3-46,16.1c0-0.4,0-0.8,0.1-1.2c0.8-0.3,1.5-0.8,2.3-0.8c4.8-0.4,3.8-2.3,1.6-5.1
			c-3.8-4.9-8-9.5-13-13.1c-7.9-5.6-16.6-9.3-26.5-6c-15.4,5-25.1,16-31.4,30.5C185.1,311.9,185.4,316.8,183,321z"/>
		<path class="st1" d="M183,321c2.4-4.2,2.1-9.1,4-13.4c6.3-14.5,16-25.5,31.4-30.5c9.9-3.2,18.6,0.4,26.5,6c5,3.6,9.1,8.2,13,13.1
			c2.2,2.8,3.2,4.7-1.6,5.1c-0.8,0.1-1.6,0.5-2.3,0.8c-11,2-22,4-33,6c-3.7-0.3-5.2,1.1-5.1,5.1c0.3,11.9-0.4,23.9,1.2,35.7
			c-0.6,7.8,1.7,15.3,2,23c-0.3,1.1,0.6,2.3-0.4,3.3c-3.1-0.1-4.6-2.8-6.6-4.5c-7.3-6.3-15.7-11.4-21.5-19.6
			c-4-5.6-5.3-12.1-7.7-18.2C183,329,183,325,183,321z"/>
		<path class="st2" d="M218.8,375.2c1-1,0.1-2.2,0.4-3.3c0.9-0.1,1.8-0.3,1.6-1.4c-1.3-7.1-0.6-14.5-2.5-21.6
			c-0.4-11.7-1.2-23.4-0.4-35.2c0.1-2.2,0.3-4,3.1-3.9c4-0.6,8.1-1.1,12.1-2c7-1.6,14.3-1.3,20.9-4.6c16.6-1.8,31.4-8.8,46-16.1
			c5.3-2.6,9.6-3,14.8-0.1c6.5,3.6,13.5,6.3,20.3,9.3c3.2,1.4,6.6,2.1,10.2,1.3c0,0-0.2,0.1-0.2,0.1c0.5,1.5,1.8,1.2,2.9,1.4
			c2.1,1.8,4.8,2.1,7.3,2.8c12.6,3.6,25.4,6,38.2,7.9c2.4,0.3,3.5,0.9,3.5,3.5c-0.1,11.6-0.2,23.2,0,34.8c0,2-2.5,4,0.1,5.9
			c0,1.2-0.1,2.4-0.1,3.6c-4.6,13.6-5.1,28.1-9.8,41.7c-4.6,13.2-9.3,26.2-17.1,37.9c-2.4,3.6-3.8,7.7-5.7,11.4c0,0,0-0.2,0-0.2
			l0.2-0.1c-3.2,2-4.7,5.5-6.8,8.4c-4.2,5.7-10.2,9.8-13.9,15.9c-2.6,0.1-4.5,1.4-6.4,3.3c-7,7.1-15.5,12.4-23.8,17.8
			c-5.1,3.3-9.6,2.3-14.3-0.7c-11.6-7.5-22.6-15.7-31.9-26c-1.7-1.9-3.5-3.7-6.4-3.1c-4.1-5.1-8.1-10.1-12.2-15.2
			c0-0.8,0.1-1.7-1-1.9l0,0.1c1-6.2-4-10-6.4-14.6c-8.1-15.1-13.9-30.9-17.4-47.6c-0.6-3-3.2-5.1-3.2-8.2c-0.9-0.3-0.6-2-2.1-1.7
			L218.8,375.2z M349,458.9L349,458.9c0.3-0.4,0.6-0.8,1-1.3c4.3-5.5,8.6-11,12.9-16.5c1.6-0.7,2.5-2,3.3-3.5
			c4.8-8.5,9.7-16.9,13.1-26.1c5.6-15.4,9.7-31.1,10.6-47.5c1.6-4.6,1.8-9.3,0.2-14c-0.2-6.4,0.1-12.8,1-19.1
			c1.3-4.7,1.6-9.3-0.2-13.9c0,0,0.1,0.1,0.1,0.1c-0.3-0.4-0.7-0.7-1-1.1c-17.8-1.7-35.1-5.7-52-11.6c-0.4-0.4-0.8-1.1-1.3-1.3
			c-8.5-3.5-17-7.1-25.2-11.3c-2.9-1.5-6-1.3-9,0.2c-3.5,1.8-7.2,3.4-10.7,5.2c-8.8,4.5-18.3,7.2-27.6,10.6c-11.3,5-23.5,6.3-35.6,8
			c-4,0.6-4.8,1.7-4.7,5.4c0.3,10.3,1.8,20.5,1.2,30.8c-2.3,6.3,0.3,12.4,0.9,18.6c0,0.2,0.6,0.3,0.9,0.4c0.8,4,1.3,8,1.2,12
			c1.4,12.8,5.5,24.8,10.8,36.5c3.1,6.9,5.9,14,11.3,19.6c2.8,3.9,5.5,7.7,8.3,11.6c4.8,6.6,11.6,11.4,16.7,17.8
			c0.5,0.8,0.8,1.9,1.5,2.5c7.2,6.6,15.1,12.4,23.4,17.5c4.8,2.9,9.9,2.2,14.8,0.1c1.9-0.8,3.6-2.3,5.4-3.5
			c6-4.3,12.7-7.8,16.9-14.3c0.2-0.2,0.4-0.5,0.7-0.7c0.7-0.1,1.2-0.5,1.3-1.3c0.2-0.2,0.5-0.5,0.7-0.7c0.7-0.1,1.1-0.5,1.3-1.3
			c0.2-0.2,0.5-0.5,0.7-0.7c1.7,0.2,2.4-0.5,2.2-2.2c1.2-1.3,2.5-2.5,3.7-3.8C348.3,459.9,348.8,459.6,349,458.9z"/>
		<path class="st3" d="M397,357.7c0-1.2,0.1-2.4,0.1-3.6c1.7-1.6,0.9-3.7,1.1-5.6c0.9-11.4,0.2-22.9,0.7-34.3
			c0.2-4.5-1.8-5.9-5.4-6.2c-15.6-1.3-30.5-5.8-45.5-9.8c-1-0.1-1.8-1.5-3-0.4c0,0,0.2-0.1,0.2-0.1c-2.9-1.4-3.2-2.5-1-5.6
			c14.8-20.6,44.4-21.5,64.9-8.2c5.6,3.7,10.6,8.2,14.4,13.7c7.2,10.5,7.6,21.6,1.5,32.8C418.4,342.3,408.7,351,397,357.7z"/>
		<path class="st1" d="M248.9,448.9c4.1,5.1,8.1,10.1,12.2,15.2c1.8,3.7,5.3,5.8,8,8.7c1.4,1.5,1.4,2.3,0,3.5
			c-7.4,6.7-13.4,14.6-19.4,22.6c-4.6,6.1-11.4,10.2-18.7,12.7c-8.2,2.7-14-2.4-19.1-7.7c-7.5-7.8-7.7-12.2-1.6-21
			c7.5-10.9,17.3-19.8,26.2-29.4c1.9-2.1,4.2-3.9,5.8-6.2c2.1-3,3.7-2.1,5.6,0c0,0,0-0.1,0-0.1C247.9,447.8,247.7,448.8,248.9,448.9
			z"/>
		<path class="st1" d="M364.6,448.4l-0.2,0.1c0,0,0,0.2,0,0.2c3-1,4.7,0.4,6.5,2.7c5.9,7.5,11.9,15,19.6,21
			c6.9,5.4,10.3,13.8,12.4,22.2c1.6,6.4-2.1,11.3-6.5,15.2c-12.1,10.6-16.6,9-25.7,0.7c-10.4-9.4-18.6-20.7-27.8-31.2
			c-2.5-2.9,0.6-3.5,1.2-5.2c7.5-6.7,14.1-14.3,19.9-22.5C364.6,451,367.2,450,364.6,448.4z"/>
		<path class="st4" d="M254,303.3c-6.6,3.3-14,3-20.9,4.6c-4,0.9-8.1,1.3-12.1,2c0-0.6,0-1.2,0-1.7c11-2,22-4,33-6
			C254,302.5,254,302.9,254,303.3z"/>
		<path class="st4" d="M364.6,448.4c2.6,1.6-0.1,2.5-0.6,3.3c-5.8,8.2-12.4,15.8-19.9,22.5c-0.1-0.5-0.1-1-0.2-1.5
			c3.7-6.1,9.7-10.2,13.9-15.9C360,454,361.4,450.5,364.6,448.4z"/>
		<path class="st1" d="M218.9,375.1c1.4-0.3,1.2,1.4,2.1,1.7C219.8,376.8,218.3,377.1,218.9,375.1z"/>
		<path class="st5" d="M221,308.2c0,0.6,0,1.2,0,1.7c-2.8-0.1-2.9,1.7-3.1,3.9c-0.8,11.7,0.1,23.5,0.4,35.2c-0.4,0-0.8,0-1.2,0
			c-1.6-11.9-1-23.8-1.2-35.7C215.8,309.3,217.2,307.8,221,308.2z"/>
		<path class="st4" d="M217.2,349c0.4,0,0.8,0,1.2,0c1.9,7.1,1.2,14.4,2.5,21.6c0.2,1.1-0.8,1.3-1.6,1.4
			C218.9,364.3,216.6,356.8,217.2,349z"/>
		<path class="st1" d="M362.9,441.1c-4.3,5.5-8.6,11-12.9,16.5c-0.6,0.3-1.1,0.6-1,1.4c0,0,0.1-0.1,0.1-0.1c-0.4,0.3-0.9,0.7-1.3,1
			c-1.2,1.3-2.5,2.5-3.7,3.8c-0.7,0.7-1.5,1.5-2.2,2.2c-0.2,0.2-0.5,0.5-0.7,0.7c-0.4,0.4-0.8,0.8-1.3,1.3c-0.2,0.2-0.5,0.5-0.7,0.7
			c-0.4,0.4-0.9,0.8-1.3,1.3c-0.2,0.2-0.4,0.5-0.7,0.7c-2.2,0.7-2.9-1.3-3.9-2.4c-8.1-8.5-17.8-15.3-26.5-23.2
			c-2.5-2.2-4.3-2.3-6.8,0.5c-6.7,7.2-13.8,13.9-20.7,20.8c-1.1,1-1.8,3-4,2c-5.1-6.4-11.9-11.1-16.7-17.8
			c-2.8-3.9-5.5-7.7-8.3-11.6c4.9-7,9.6-14.1,14.7-21c1.9-2.6,1.9-4.1-0.8-6c-5.5-4-10.8-8.1-16-12.4c-6.7-5.5-14.1-10.1-19.9-16.7
			c0-4-0.4-8-1.2-12c-0.6-6.3-1.2-12.6-1.8-18.9c0.6-10.3-1-20.5-1.2-30.8c-0.1-3.7,0.7-4.8,4.7-5.4c12.1-1.7,24.3-3,35.6-8
			c2,0.4,2.8,2,3.8,3.6c3.7,5.8,7.7,11.5,11.1,17.4c2.4,4,6.2,7.3,7,12.2c-0.5,0.6-1,1.2-1.4,1.9c-4.2,9.3-9.4,18-13,27.7
			c-2.5,7-3,13.1-1,20.2c2.4,8.4,8.1,15.1,10.8,23.3c1.3,4,3.7,7.6,6.7,10.6c2.8,2.8,5.7,5.7,10.3,4.7c0.2,1.3,1.2,1.5,2.2,1.5
			c7.9,0,15.8,0,23.7,0.1c1.3,0,2.2-0.4,2.4-1.8c4.2-0.9,3.8-4.8,3.7-7.4c0-2.4-2.6-3.9-5.4-3.6l0,0c-0.3-1-1.2-1-2-1
			c-8.1,0-16.1,0.1-24.2,0.2c-0.3-0.1-0.6-0.2-0.8-0.2c-1.4-2.6-2.8-5.2-4.2-7.8c-0.3-1-0.2-2.3-1.8-2.2l0,0.1c0.5-2-0.1-3.3-2-4.1
			l0,0.1c-1.1-5.6-3.8-10.5-7.1-15l0,0c0.2-1.2,0-2.3-1-3.2c0.3-3.4-1.2-6.9,0.9-10.1c4.3-6.8,7.5-14.2,11.1-21.4
			c3.9,0.3,3.8,4.8,6.8,6.5c2.1-3.3,4.3-6.5,6.2-10c1.5-2.8,3.3-3.8,6.6-3.8c4.1,0,8.4,1.3,12.4-0.9c5.4-0.5,2.8-5.2,4.1-7.8
			c-0.1-3.3-1.7-4.6-5.6-5.1c-2-0.3-4.2,1-5.8-1.1c5.4-8.1,10.7-16.2,16.1-24.2c0.8-1.1,1-3,3.1-2.4c16.9,5.9,34.2,9.9,52,11.6
			c0.3,0.4,0.7,0.7,1,1.1c0,0-0.1-0.1-0.1-0.1c0.1,4.6,0.1,9.3,0.2,13.9c-0.9,6.3-1.3,12.7-1,19.1c-0.3,4.7-0.6,9.3-0.9,14
			c-0.3,1.9-1.8,2.7-3,3.7c-15.9,13-31.5,26.3-46.7,40.2c-1.5,1.4-1.7,2.2-0.2,4C347.2,421.6,355,431.4,362.9,441.1z"/>
		<path class="st6" d="M338,304.4c-2.1-0.7-2.3,1.2-3.1,2.4c-5.4,8.1-10.7,16.2-16.1,24.2c-1.2,2-3,2-5.1,2.1
			c-4.2,0.2-8.6-1-12.7,0.8c-1,0.1-2,0.2-3,0.3c-2.1-0.2-3.9,0.8-5.5,1.8c-2.3,1.4-3.3,4.5-6.4,5c-0.8-4.9-4.7-8.2-7-12.2
			c-3.5-5.9-7.4-11.6-11.1-17.4c-1-1.5-1.8-3.2-3.8-3.6c9.2-3.4,18.8-6.1,27.6-10.6c3.5-1.8,7.2-3.3,10.7-5.2c3-1.6,6.1-1.7,9-0.2
			c8.2,4.2,16.7,7.8,25.2,11.3C337.2,303.3,337.5,304,338,304.4z"/>
		<path class="st6" d="M362.9,441.1c-7.9-9.7-15.6-19.5-23.6-29.2c-1.5-1.8-1.3-2.6,0.2-4c15.2-13.8,30.8-27.1,46.7-40.2
			c1.3-1,2.8-1.9,3-3.7c0.2,0,0.5,0,0.7,0c-0.9,16.4-5,32.1-10.6,47.5c-3.3,9.2-8.2,17.6-13.1,26.1
			C365.3,439.1,364.4,440.4,362.9,441.1z"/>
		<path class="st6" d="M275,468.4c2.2,1,2.9-1,4-2c7-6.9,14.1-13.6,20.7-20.8c2.6-2.7,4.3-2.7,6.8-0.5c8.7,7.9,18.4,14.6,26.5,23.2
			c1,1.1,1.7,3.1,3.9,2.4c-4.1,6.5-10.9,10-16.9,14.3c-1.7,1.3-3.4,2.7-5.4,3.5c-4.9,2.1-10,2.8-14.8-0.1
			c-8.4-5.1-16.2-10.9-23.4-17.5C275.8,470.3,275.5,469.3,275,468.4z"/>
		<path class="st0" d="M228,382.9c5.8,6.6,13.3,11.2,19.9,16.7c5.2,4.3,10.6,8.4,16,12.4c2.7,1.9,2.7,3.4,0.8,6
			c-5.1,6.9-9.8,14-14.7,21c-5.4-5.6-8.2-12.7-11.3-19.6C233.6,407.8,229.4,395.8,228,382.9z"/>
		<path class="st5" d="M348,298.2c15,4,29.9,8.5,45.5,9.8c3.6,0.3,5.6,1.6,5.4,6.2c-0.5,11.4,0.2,22.9-0.7,34.3
			c-0.1,1.8,0.7,4-1.1,5.6c-2.6-1.9-0.1-3.9-0.1-5.9c-0.1-11.6-0.1-23.2,0-34.8c0-2.6-1.1-3.2-3.5-3.5c-12.9-1.9-25.7-4.3-38.2-7.9
			c-2.5-0.7-5.2-1-7.3-2.8C348,298.8,348,298.5,348,298.2z"/>
		<path class="st4" d="M225,352c0.6,6.3,1.2,12.6,1.8,18.9c-0.3-0.1-0.8-0.2-0.9-0.4C225.3,364.4,222.7,358.3,225,352z"/>
		<path class="st5" d="M389.9,364c-0.2,0-0.5,0-0.7,0c0.3-4.7,0.6-9.3,0.9-14C391.6,354.7,391.5,359.4,389.9,364z"/>
		<path class="st0" d="M391.1,330.9c-0.1-4.6-0.1-9.3-0.2-13.9C392.8,321.6,392.4,326.3,391.1,330.9z"/>
		<path class="st0" d="M348,298.2c0,0.3,0,0.7,0,1c-1.1-0.2-2.4,0.1-2.9-1.4C346.2,296.7,347,298.1,348,298.2z"/>
		<path class="st4" d="M341.7,465.9c0.7-0.7,1.5-1.5,2.2-2.2C344.1,465.4,343.4,466.1,341.7,465.9z"/>
		<path class="st0" d="M248.9,448.9c-1.2-0.1-1.1-1-1-1.9C249.1,447.2,248.9,448.1,248.9,448.9z"/>
		<path class="st4" d="M348.9,459c0-0.7,0.4-1.1,1-1.4C349.6,458.1,349.3,458.5,348.9,459z"/>
		<path class="st4" d="M347.7,459.9c0.4-0.3,0.9-0.7,1.3-1C348.8,459.6,348.3,459.9,347.7,459.9z"/>
		<path class="st0" d="M391,317.1c-0.3-0.4-0.7-0.7-1-1.1C390.3,316.4,390.7,316.7,391,317.1z"/>
		<path class="st4" d="M339.7,467.9c0.4-0.4,0.8-0.8,1.3-1.3C340.8,467.4,340.4,467.8,339.7,467.9z"/>
		<path class="st4" d="M337.6,469.9c0.4-0.4,0.9-0.8,1.3-1.3C338.8,469.4,338.4,469.8,337.6,469.9z"/>
		<path class="st7" d="M286.1,341c3.1-0.5,4.1-3.6,6.4-5c1.7-1,3.4-2,5.5-1.8c9,1.3,17.9,1.4,26.9-0.1c2.5-0.3,2.8,3.2,5.3,3.1
			c-1.3,2.6,1.2,7.3-4.1,7.8c-7.8,0-15.6-0.1-23.3,0c-6,0-7.7,1.7-8.7,8.2c-3.6,7.2-6.8,14.6-11.1,21.4c-2,3.2-0.6,6.7-0.9,10.1
			c-1.5,1.6-0.8,2.6,1,3.2c0,0,0,0,0,0c0,6.1,3.9,10.4,7.1,15c0,0,0-0.1,0-0.1c-0.1,1.7,0.4,3.2,2,4.1c0,0,0-0.1,0-0.1
			c-0.3,1.5,0.5,2.1,1.8,2.2c1.4,2.6,2.8,5.2,4.2,7.8c-1.2,2.9,1.2,2,2.3,2c7.7,0.4,15.5-0.7,23.2,0.6c1.1,0.2,1.2-0.9,1.5-1.6
			c2.8-0.3,5.4,1.3,5.4,3.6c0,2.6,0.5,6.5-3.7,7.4c-9.4,0.1-18.9,0.2-28.3,0.3c-4.6,1-7.4-1.9-10.3-4.7c-3-3-5.4-6.6-6.7-10.6
			c-2.7-8.2-8.4-14.8-10.8-23.3c-2-7.1-1.5-13.2,1-20.2c3.5-9.7,8.7-18.4,13-27.7C285,342.2,285.6,341.6,286.1,341z"/>
		<path class="st5" d="M294.1,353.2c1-6.5,2.7-8.2,8.7-8.2c7.8-0.1,15.6,0,23.3,0c-4,2.2-8.3,0.9-12.4,0.9c-3.3,0-5.1,1-6.6,3.8
			c-1.9,3.5-4.1,6.7-6.2,10C297.8,358.1,298,353.6,294.1,353.2z"/>
		<path class="st8" d="M298.5,429.3c9.4-0.1,18.9-0.2,28.3-0.3c-0.2,1.4-1.1,1.8-2.4,1.8c-7.9,0-15.8,0-23.7-0.1
			C299.7,430.8,298.7,430.6,298.5,429.3z"/>
		<path class="st9" d="M330.2,337.2c-2.4,0.2-2.8-3.3-5.3-3.1c-8-0.1-15.9-0.2-23.9-0.3c4.1-1.7,8.5-0.5,12.7-0.8
			c2-0.1,3.9-0.1,5.1-2.1c1.6,2.1,3.9,0.8,5.8,1.1C328.5,332.6,330.1,334,330.2,337.2z"/>
		<path class="st10" d="M325.1,418c-0.3,0.7-0.4,1.8-1.5,1.6c-7.7-1.3-15.5-0.2-23.2-0.6c-1.2-0.1-3.5,0.9-2.3-2
			c0.3,0,0.6,0.1,0.8,0.2c1.3,1.6,3.1,0.8,4.7,0.8C310.8,418.1,317.9,418,325.1,418L325.1,418z"/>
		<path class="st11" d="M290.1,403c-3.2-4.6-7-8.9-7.1-15C286.3,392.5,289,397.4,290.1,403z"/>
		<path class="st4" d="M325.1,418c-7.2,0-14.3,0.1-21.5,0c-1.6,0-3.3,0.7-4.7-0.8c8.1-0.1,16.1-0.1,24.2-0.2
			C323.9,417,324.8,417,325.1,418z"/>
		<path class="st11" d="M283.1,388c-1.8-0.6-2.4-1.6-1-3.2C283.1,385.6,283.2,386.7,283.1,388z"/>
		<path class="st11" d="M292.1,407c-1.6-0.9-2.1-2.3-2-4.1C292,403.7,292.6,405,292.1,407z"/>
		<path class="st11" d="M293.9,409.1c-1.3-0.2-2.1-0.7-1.8-2.2C293.7,406.8,293.6,408.1,293.9,409.1z"/>
		<path class="st10" d="M301,333.9c8,0.1,15.9,0.2,23.9,0.3c-9,1.4-17.9,1.3-26.9,0.1C299,334.1,300,334,301,333.9z"/>
	</g>
</g>
</svg>
